<svg width="136" height="109" xmlns="http://www.w3.org/2000/svg">
 <!-- Created with Method Draw - http://github.com/duopixel/Method-Draw/ -->

 <!--<g>-->
  <!--<title>background</title>-->
  <!--<rect fill="#fff" id="canvas_background" width="136" height="109" y="-1" x="-1"/>-->
  <!--<g display="none" overflow="visible" y="0" x="0" height="100%" width="100%" id="canvasGrid">-->
   <!--<rect fill="url(#gridpattern)" stroke-width="0" y="0" x="0" height="100%" width="100%"/>-->
  <!--</g>-->
 <!--</g>-->
 <g>
  <!--<title>Layer 1</title>-->
  <g transform="rotate(-180 290,199.99999999999997) " id="svg_23">
   <g transform="matrix(16.692071988495627,0,0,16.692071988495627,0,0) " id="svg_5">
    <path id="svg_6" d="m33.191018,12.480861l-31.635,0c-0.276,0 -0.5,-0.224 -0.5,-0.5s0.224,-0.5 0.5,-0.5l31.635,0c0.276,0 0.5,0.224 0.5,0.5s-0.224,0.5 -0.5,0.5z"/>
    <path id="svg_7" d="m20.654018,25.016861c-0.128,0 -0.256,-0.049 -0.354,-0.146c-0.195,-0.195 -0.195,-0.512 0,-0.707l12.184,-12.184l-12.184,-12.18c-0.195,-0.195 -0.195,-0.512 0,-0.707s0.512,-0.195 0.707,0l12.537,12.533c0.094,0.094 0.146,0.221 0.146,0.354s-0.053,0.26 -0.146,0.354l-12.537,12.536c-0.097,0.098 -0.225,0.147 -0.353,0.147z"/>
   </g>
   <g transform="matrix(16.692071988495627,0,0,16.692071988495627,0,0) " id="svg_8"/>
   <g transform="matrix(16.692071988495627,0,0,16.692071988495627,0,0) " id="svg_9"/>
   <g transform="matrix(16.692071988495627,0,0,16.692071988495627,0,0) " id="svg_10"/>
   <g transform="matrix(16.692071988495627,0,0,16.692071988495627,0,0) " id="svg_11"/>
   <g transform="matrix(16.692071988495627,0,0,16.692071988495627,0,0) " id="svg_12"/>
   <g transform="matrix(16.692071988495627,0,0,16.692071988495627,0,0) " id="svg_13"/>
   <g transform="matrix(16.692071988495627,0,0,16.692071988495627,0,0) " id="svg_14"/>
   <g transform="matrix(16.692071988495627,0,0,16.692071988495627,0,0) " id="svg_15"/>
   <g transform="matrix(16.692071988495627,0,0,16.692071988495627,0,0) " id="svg_16"/>
   <g transform="matrix(16.692071988495627,0,0,16.692071988495627,0,0) " id="svg_17"/>
   <g transform="matrix(16.692071988495627,0,0,16.692071988495627,0,0) " id="svg_18"/>
   <g transform="matrix(16.692071988495627,0,0,16.692071988495627,0,0) " id="svg_19"/>
   <g transform="matrix(16.692071988495627,0,0,16.692071988495627,0,0) " id="svg_20"/>
   <g transform="matrix(16.692071988495627,0,0,16.692071988495627,0,0) " id="svg_21"/>
   <g transform="matrix(16.692071988495627,0,0,16.692071988495627,0,0) " id="svg_22"/>
  </g>
 </g>
</svg>